HIERARCHY
ROOT Hips
{
	OFFSET 0.00000 0.00000 0.00000
	CHANNELS 6 Xposition Yposition Zposition Zrotation Yrotation Xrotation 
	JOINT LHipJoint
	{
		OFFSET 0 0 0
		CHANNELS 3 Zrotation Yrotation Xrotation
		JOINT LeftHip
		{
			OFFSET 1.64577 -1.42384 0.94276
			CHANNELS 3 Zrotation Yrotation Xrotation
			JOINT LeftKnee
			{
				OFFSET 2.11538 -5.81197 0.00000
				CHANNELS 3 Zrotation Yrotation Xrotation
				JOINT LeftAnkle
				{
					OFFSET 2.36541 -6.49893 0.00000
					CHANNELS 3 Zrotation Yrotation Xrotation
					JOINT LeftToe
					{
						OFFSET 0.17759 -0.48793 1.73865
						CHANNELS 3 Zrotation Yrotation Xrotation
						End Site
						{
							OFFSET 0.00000 -0.00000 0.91205
						}
					}
				}
			}
		}
	}
	JOINT RHipJoint
	{
		OFFSET 0 0 0
		CHANNELS 3 Zrotation Yrotation Xrotation
		JOINT RightHip
		{
			OFFSET -1.43750 -1.42384 0.94276
			CHANNELS 3 Zrotation Yrotation Xrotation
			JOINT RightKnee
			{
				OFFSET -2.10480 -5.78291 0.00000
				CHANNELS 3 Zrotation Yrotation Xrotation
				JOINT RightAnkle
				{
					OFFSET -2.34880 -6.45329 0.00000
					CHANNELS 3 Zrotation Yrotation Xrotation
					JOINT RightToe
					{
						OFFSET -0.22842 -0.62757 1.80469
						CHANNELS 3 Zrotation Yrotation Xrotation
						End Site
						{
							OFFSET -0.00000 -0.00000 0.95886
						}
					}
				}
			}
		}
	}
	JOINT lowerback
	{
		OFFSET 0 0 0
		CHANNELS 3 Zrotation Yrotation Xrotation
		JOINT Chest
		{
			OFFSET 0.06217 1.93758 -0.49272
			CHANNELS 3 Zrotation Yrotation Xrotation
			JOINT Chest2
			{
				OFFSET -0.03114 2.03621 -0.05830
				CHANNELS 3 Zrotation Yrotation Xrotation
				JOINT lowerneck
				{
					OFFSET 0 0 0
					CHANNELS 3 Zrotation Yrotation Xrotation
					JOINT Neck
					{
						OFFSET 0.04421 1.41010 0.26562
						CHANNELS 3 Zrotation Yrotation Xrotation
						JOINT Head
						{
							OFFSET -0.13407 1.43847 0.06181
							CHANNELS 3 Zrotation Yrotation Xrotation
							End Site
							{
								OFFSET -0.04980 1.45844 -0.00689
							}
						}
					}
				}
				JOINT LeftCollar
				{
					OFFSET 0 0 0
					CHANNELS 3 Zrotation Yrotation Xrotation
					JOINT LeftShoulder
					{
						OFFSET 2.18382 1.47753 -0.35694
CHANNELS 3 Zrotation Xrotation Yrotation
						JOINT LeftElbow
						{
OFFSET 0 -5.054600 0.000000
CHANNELS 3 Zrotation Xrotation Yrotation
							JOINT LeftWrist
							{
OFFSET 0 -3.390130 0.000000
CHANNELS 3 Zrotation Xrotation Yrotation
								JOINT lhand
								{
									OFFSET 0 0 0
CHANNELS 3 Zrotation Xrotation Yrotation
									JOINT LFingers
									{
OFFSET 0 -0.572420 -0.000000
CHANNELS 3 Zrotation Xrotation Yrotation
										End Site
										{
OFFSET 0 -0.461500 -0.000000
										}
									}
								}
								JOINT LThumb
								{
OFFSET 0 0.000000 0.000000
CHANNELS 3 Zrotation Xrotation Yrotation
									End Site
									{
OFFSET 0 -0.468550 0.468550
									}
								}
							}
						}
					}
				}
				JOINT RightCollar
				{
					OFFSET 0 0 0
					CHANNELS 3 Zrotation Yrotation Xrotation
					JOINT RightShoulder
					{
						OFFSET -2.06033 1.72839 -0.47437
CHANNELS 3 Zrotation Xrotation Yrotation
						JOINT RightElbow
						{
OFFSET 0 -5.070100 0.000000
CHANNELS 3 Zrotation Xrotation Yrotation
							JOINT RightWrist
							{
OFFSET 0 -3.149570 -0.000000
CHANNELS 3 Zrotation Xrotation Yrotation
								JOINT rhand
								{
									OFFSET 0 0 0
CHANNELS 3 Zrotation Xrotation Yrotation
									JOINT RFingers
									{
OFFSET 0 -0.718190 -0.000000
CHANNELS 3 Zrotation Xrotation Yrotation
										End Site
										{
OFFSET 0 -0.579020 -0.000000
										}
									}
								}
								JOINT RThumb
								{
OFFSET 0 0.000000 0.000000
CHANNELS 3 Zrotation Xrotation Yrotation
									End Site
									{
OFFSET 0 -0.587860 0.587860
									}
								}
							}
						}
					}
				}
			}
		}
	}
}
MOTION
Frames: 6
Frame Time: 0.008333333333333333
8.027600 15.559800 2.054800 -179.401000 1.708700 177.776000 0.000000 0.000000 0.000000 -23.051500 -19.266800 5.514200 1.312400 7.256500 20.477500 0.380500 17.088700 -27.380100 0.153900 -2.527600 -6.966200 0.000000 0.000000 0.000000 25.555000 17.790100 4.972700 -1.195100 -6.936700 19.528000 -0.787300 -20.679100 -34.259700 -1.115300 6.709100 -18.856500 1.234000 1.625200 5.505100 -1.397300 2.333100 2.080800 -2.269100 1.226900 -0.836800 10.640600 8.308600 -1.060700 -5.642800 10.872900 -3.290400 -3.543300 5.322000 0.086900 0.000000 -0.000000 0.000000 3.119000 1.611000 -26.897800 15.563500 -24.925300 3.460000 20.595100 6.068400 -9.798400 0.000000 0.000000 0.000000 -7.125000 0.000000 0.000000 -5.630500 40.370400 -0.645000 0.000000 -0.000000 0.000000 -0.962800 6.731100 26.873100 -18.502300 -28.795600 -4.788700 -18.318000 -18.382400 0.052000 0.000000 0.000000 0.000000 7.125000 0.000000 -0.000000 6.495300 30.002300 2.390800
8.024524 15.560389 2.054015 -179.104546 1.745610 177.859766 0.000000 0.000000 0.000000 -22.714930 -19.317191 5.311656 1.343485 7.338172 20.721338 0.397384 17.052838 -27.465699 0.159266 -2.570857 -7.086287 0.000000 0.000000 0.000000 25.832868 17.758949 5.006141 -1.166436 -6.855617 19.288415 -0.762759 -20.696508 -34.137388 -1.107578 6.686588 -18.790141 1.570701 1.630763 5.424082 -1.331334 2.352144 2.053903 -2.388663 1.235146 -0.807547 10.637066 8.303430 -1.057624 -5.593587 10.866552 -3.282678 -3.526154 5.318532 0.084871 0.000000 0.000000 0.000000 3.155975 1.635083 -27.003882 15.572924 -24.938192 3.463927 20.493141 6.033127 -9.909063 0.000000 0.000000 0.000000 -7.125000 0.000000 0.000000 -5.735928 40.478445 -0.641728 0.000000 0.000000 0.000000 -0.941858 6.748115 26.844829 -18.509630 -28.804827 -4.792234 -18.314139 -18.389533 0.011426 0.000000 0.000000 0.000000 7.125000 0.000000 0.000000 6.495496 29.959893 2.397541
8.022838 15.560298 2.053662 -178.932249 1.763587 177.908324 0.000000 0.000000 0.000000 -22.507829 -19.315386 5.185521 1.359035 7.379045 20.843305 0.401420 17.026519 -27.464789 0.165497 -2.620446 -7.223916 0.000000 0.000000 0.000000 25.995259 17.734038 4.999555 -1.152566 -6.816383 19.172493 -0.655601 -20.966615 -33.824116 -1.217187 6.980799 -19.665708 1.755851 1.633854 5.375679 -1.289211 2.362509 2.039268 -2.448279 1.239562 -0.789444 10.641253 8.297025 -1.061343 -5.570349 10.858135 -3.264269 -3.518644 5.314507 0.089483 0.000000 0.000000 0.000000 3.183159 1.647182 -27.088160 15.581328 -24.949725 3.467452 20.432011 5.994734 -9.998076 0.000000 0.000000 0.000000 -7.125000 0.000000 0.000000 -5.802595 40.567157 -0.636664 0.000000 0.000000 0.000000 -0.938274 6.764420 26.854577 -18.523383 -28.822147 -4.798887 -18.320779 -18.408928 -0.005522 0.000000 0.000000 0.000000 7.125000 0.000000 0.000000 6.489083 29.942256 2.397919
8.022707 15.559448 2.053793 -178.898873 1.760380 177.917486 0.000000 0.000000 0.000000 -22.445593 -19.255179 5.144881 1.357203 7.374268 20.828908 0.391080 17.010878 -27.367083 0.172696 -2.677119 -7.381174 0.000000 0.000000 0.000000 26.028438 17.716106 4.948183 -1.155249 -6.823974 19.194940 -0.456002 -21.519472 -33.297173 -1.458080 7.629399 -21.595212 1.771426 1.634182 5.363768 -1.273767 2.363163 2.038351 -2.440819 1.239693 -0.783816 10.654080 8.289237 -1.072665 -5.576173 10.847402 -3.233904 -3.521916 5.309861 0.101524 0.000000 0.000000 0.000000 3.199389 1.645873 -27.148039 15.588592 -24.959738 3.470527 20.416567 5.952851 -10.062864 0.000000 0.000000 0.000000 -7.125000 0.000000 0.000000 -5.825892 40.634235 -0.629597 0.000000 0.000000 0.000000 -0.954111 6.779930 26.906865 -18.544325 -28.848520 -4.809031 -18.339168 -18.442042 0.003967 0.000000 0.000000 0.000000 7.125000 0.000000 0.000000 6.475275 29.952334 2.391178
8.022515 15.560759 2.054171 -178.974212 1.744202 177.879085 0.000000 0.000000 0.000000 -22.544638 -19.259089 5.190163 1.357100 7.374124 20.828532 0.393403 17.006788 -27.380007 0.169456 -2.651948 -7.311182 0.000000 0.000000 0.000000 25.949999 17.625658 4.947338 -1.155956 -6.826130 19.201203 -0.195992 -22.169493 -32.521423 -1.802562 8.416671 -24.002380 1.694100 1.631915 5.404177 -1.299955 2.358320 2.046330 -2.425390 1.237785 -0.800363 10.627807 8.273419 -1.060452 -5.542712 10.828331 -3.227629 -3.507028 5.300767 0.096085 0.000000 0.000000 0.000000 3.214754 1.626837 -27.090001 15.573249 -24.938619 3.464029 20.464869 6.017026 -10.039074 0.000000 0.000000 0.000000 -7.125000 0.000000 0.000000 -5.780008 40.613292 -0.627594 0.000000 0.000000 0.000000 -0.939496 6.788089 26.950197 -18.555260 -28.862354 -4.814294 -18.380659 -18.497084 -0.088649 0.000000 0.000000 0.000000 7.125000 0.000000 0.000000 6.436512 29.855613 2.391603
8.022536 15.561736 2.054699 -179.049484 1.728667 177.848469 0.000000 0.000000 0.000000 -22.636482 -19.253722 5.231655 1.354161 7.366526 20.805860 0.391771 17.007603 -27.368515 0.167663 -2.637992 -7.272387 0.000000 0.000000 0.000000 25.873714 17.565892 4.936110 -1.159511 -6.836262 19.231104 0.004886 -22.674129 -31.924492 -2.076219 9.019392 -25.858715 1.606678 1.629248 5.440349 -1.320374 2.352035 2.050973 -2.398222 1.234886 -0.818719 10.602773 8.261016 -1.052827 -5.512221 10.813362 -3.216745 -3.492856 5.293831 0.093579 0.000000 0.000000 0.000000 3.223156 1.610610 -27.038802 15.559854 -24.920220 3.458376 20.480959 6.073058 -10.033311 0.000000 0.000000 0.000000 -7.125000 0.000000 0.000000 -5.765032 40.608613 -0.626627 0.000000 0.000000 0.000000 -0.936404 6.797607 26.998929 -18.565790 -28.875633 -4.819377 -18.406489 -18.552232 -0.168478 0.000000 0.000000 0.000000 7.125000 0.000000 0.000000 6.410932 29.772161 2.394876
